<svg xmlns="http://www.w3.org/2000/svg" xml:space="preserve" width="967.287" height="276.125" style="shape-rendering:geometricPrecision;text-rendering:geometricPrecision;image-rendering:optimizeQuality;fill-rule:evenodd;clip-rule:evenodd" viewBox="0 0 24561 7011"><defs><style>.fil0{fill:#b8ffd0}</style></defs><g id="Слой_x0020_1"><g id="_2909517921632"><path class="fil0" d="M681 6352V695c969-10 2360-38 3215 446 867 492 1264 1417 1285 2384 21 982-332 1937-1221 2437-831 467-2329 396-3279 390zM0 7009c781 0 1564 5 2345 1 635-3 1385-88 1950-395 1127-612 1616-1867 1600-3099-16-1247-542-2418-1666-3033C3119-126 1255 14 0 14v6995z"/><path class="fil0" d="M3367 5029H1448c-15 16-6 399-6 451h2353v-459c0-242 43-189-151-309-46-28-261-176-273-146-12 27-4 400-4 463zM2764 4079l397 7V2478h-246c-130-1-163-38-159 94 7 231-12 1462 8 1507zM2076 3959l1 121 125 7 222-1c81 0 56-30 56-111V2478h-404v1481zM1596 1589c-325 81-210 567 118 496 314-69 214-579-118-496zM2919 1589c-327 81-209 568 118 496 315-70 212-578-118-496z"/><path d="M8143 4198h-324V2904h1136v1294h-324v-982h-488v982zm1748-1326c123 0 237 31 345 92s192 143 252 248c61 104 91 217 91 338 0 122-30 236-91 342s-144 189-249 248c-105 60-220 90-347 90-186 0-344-66-476-197-131-132-197-292-197-480 0-202 74-371 223-505 130-117 280-176 449-176zm5 305c-101 0-185 35-252 105s-101 160-101 269c0 112 33 203 100 272 66 70 150 105 252 105 101 0 186-35 254-106 67-70 101-161 101-271 0-111-33-201-100-270-66-69-151-104-254-104zm2105 1021h-328l-327-817-331 817h-329l551-1294h210l554 1294zm1466-555h-1042c15 92 55 165 120 220s148 82 249 82c121 0 225-43 312-128l272 129c-68 96-150 168-244 215-95 46-208 69-338 69-203 0-368-64-495-192-127-127-191-287-191-479 0-197 64-361 191-491 127-131 287-196 479-196 203 0 369 65 497 195 127 130 191 301 191 514l-1 62zm-323-254c-22-70-64-128-127-172-63-45-136-67-220-67-91 0-170 25-239 75-42 31-82 86-119 164h705zm805 261v-232h64c43 0 81-10 114-30 32-21 48-54 48-100 0-39-14-71-43-97s-65-38-107-38c-54 0-121 25-201 77l-127-224c112-89 237-134 374-134 126 0 231 33 314 98 83 66 124 153 124 264 0 113-60 204-181 273 161 60 242 167 242 322 0 116-45 211-135 287-91 76-216 114-376 114-176 0-321-49-435-147l178-226c77 57 151 86 221 86 55 0 100-14 132-40 33-27 50-61 50-103 0-40-16-75-46-105-31-30-73-45-126-45h-84zm1204-280h488v-466h324v1294h-324v-536h-488v536h-324V2904h324v466zm1463 2h97c136 0 241 11 314 31 73 22 134 65 184 132 50 66 76 150 76 250s-23 183-68 249c-46 66-103 110-174 132-70 22-168 32-296 32h-457V2904h324v468zm0 575h99c60 0 102-4 129-12 26-8 49-24 69-48s30-52 30-86c0-110-64-166-191-166h-136v312zm897-1043h324v1294h-324V2904zm824 1294h-173V2904h317v760l663-760h156v1294h-317v-744l-646 744zm-85-1864h263c21 32 49 57 86 73s82 24 135 24 102-9 146-28c28-13 53-36 74-69h264c-15 100-64 181-145 242s-195 92-340 92c-99 0-181-14-247-41-66-28-120-67-160-117-40-51-66-110-76-176zm2057 570h324v485l451-485h396l-580 629 587 665h-431l-388-456-35 40v416h-324V2904zm1919-32c122 0 237 31 345 92s191 143 252 248c60 104 90 217 90 338 0 122-30 236-91 342s-143 189-248 248c-105 60-221 90-347 90-186 0-345-66-476-197-132-132-198-292-198-480 0-202 75-371 223-505 131-117 280-176 450-176zm4 305c-101 0-185 35-252 105s-101 160-101 269c0 112 34 203 100 272 66 70 150 105 252 105s186-35 254-106c68-70 101-161 101-271 0-111-33-201-99-270s-151-104-255-104zm1115 1021v225h-290v-500h195l449-1019h209l452 1019h199v500h-309v-225h-905zm670-275-213-547-222 547h435z" style="fill:#b8ffd0;fill-rule:nonzero"/></g></g></svg>