<?xml version="1.0" encoding="UTF-8"?>
<!DOCTYPE svg PUBLIC "-//W3C//DTD SVG 1.1//EN" "http://www.w3.org/Graphics/SVG/1.1/DTD/svg11.dtd">
<!-- Creator: CorelDRAW X7 -->
<svg xmlns="http://www.w3.org/2000/svg" xml:space="preserve" width="255.928mm" height="73.058mm" version="1.1" style="shape-rendering:geometricPrecision; text-rendering:geometricPrecision; image-rendering:optimizeQuality; fill-rule:evenodd; clip-rule:evenodd"
viewBox="0 0 24561 7011"
 xmlns:xlink="http://www.w3.org/1999/xlink">
 <defs>
  <style type="text/css">
   <![CDATA[
    .fil0 {fill:#000606}
    .fil1 {fill:#000606;fill-rule:nonzero}
   ]]>
  </style>
 </defs>
 <g id="Слой_x0020_1">
  <metadata id="CorelCorpID_0Corel-Layer"/>
  <g id="_2909517921632">
   <path class="fil0" d="M681 6352l0 -5657c969,-10 2360,-38 3215,446 867,492 1264,1417 1285,2384 21,982 -332,1937 -1221,2437 -831,467 -2329,396 -3279,390zm-681 657c781,0 1564,5 2345,1 635,-3 1385,-88 1950,-395 1127,-612 1616,-1867 1600,-3099 -16,-1247 -542,-2418 -1666,-3033 -1110,-609 -2974,-469 -4229,-469l0 6995z"/>
   <path class="fil0" d="M3367 5029l-1919 0c-15,16 -6,399 -6,451l2353 0c0,-153 0,-306 0,-459 0,-242 43,-189 -151,-309 -46,-28 -261,-176 -273,-146 -12,27 -4,400 -4,463z"/>
   <path class="fil0" d="M2764 4079l397 7 0 -1608c-82,0 -164,0 -246,0 -130,-1 -163,-38 -159,94 7,231 -12,1462 8,1507z"/>
   <path class="fil0" d="M2076 3959l1 121 125 7 222 -1c81,0 56,-30 56,-111l0 -1497 -404 0 0 1481z"/>
   <path class="fil0" d="M1596 1589c-325,81 -210,567 118,496 314,-69 214,-579 -118,-496z"/>
   <path class="fil0" d="M2919 1589c-327,81 -209,568 118,496 315,-70 212,-578 -118,-496z"/>
   <path class="fil1" d="M8143 4198l-324 0 0 -1294 1136 0 0 1294 -324 0 0 -982 -488 0 0 982zm1748 -1326c123,0 237,31 345,92 108,61 192,143 252,248 61,104 91,217 91,338 0,122 -30,236 -91,342 -61,106 -144,189 -249,248 -105,60 -220,90 -347,90 -186,0 -344,-66 -476,-197 -131,-132 -197,-292 -197,-480 0,-202 74,-371 223,-505 130,-117 280,-176 449,-176zm5 305c-101,0 -185,35 -252,105 -67,70 -101,160 -101,269 0,112 33,203 100,272 66,70 150,105 252,105 101,0 186,-35 254,-106 67,-70 101,-161 101,-271 0,-111 -33,-201 -100,-270 -66,-69 -151,-104 -254,-104zm2105 1021l-328 0 -327 -817 -331 817 -329 0 551 -1294 210 0 554 1294zm1466 -555l-1042 0c15,92 55,165 120,220 65,55 148,82 249,82 121,0 225,-43 312,-128l272 129c-68,96 -150,168 -244,215 -95,46 -208,69 -338,69 -203,0 -368,-64 -495,-192 -127,-127 -191,-287 -191,-479 0,-197 64,-361 191,-491 127,-131 287,-196 479,-196 203,0 369,65 497,195 127,130 191,301 191,514l-1 62zm-323 -254c-22,-70 -64,-128 -127,-172 -63,-45 -136,-67 -220,-67 -91,0 -170,25 -239,75 -42,31 -82,86 -119,164l705 0zm805 261l0 -232 64 0c43,0 81,-10 114,-30 32,-21 48,-54 48,-100 0,-39 -14,-71 -43,-97 -29,-26 -65,-38 -107,-38 -54,0 -121,25 -201,77l-127 -224c112,-89 237,-134 374,-134 126,0 231,33 314,98 83,66 124,153 124,264 0,113 -60,204 -181,273 161,60 242,167 242,322 0,116 -45,211 -135,287 -91,76 -216,114 -376,114 -176,0 -321,-49 -435,-147l178 -226c77,57 151,86 221,86 55,0 100,-14 132,-40 33,-27 50,-61 50,-103 0,-40 -16,-75 -46,-105 -31,-30 -73,-45 -126,-45l-84 0zm1204 -280l488 0 0 -466 324 0 0 1294 -324 0 0 -536 -488 0 0 536 -324 0 0 -1294 324 0 0 466zm1463 2l97 0c136,0 241,11 314,31 73,22 134,65 184,132 50,66 76,150 76,250 0,100 -23,183 -68,249 -46,66 -103,110 -174,132 -70,22 -168,32 -296,32l-457 0 0 -1294 324 0 0 468zm0 575l99 0c60,0 102,-4 129,-12 26,-8 49,-24 69,-48 20,-24 30,-52 30,-86 0,-110 -64,-166 -191,-166l-136 0 0 312zm897 -1043l324 0 0 1294 -324 0 0 -1294zm824 1294l-173 0 0 -1294 317 0 0 760 663 -760 156 0 0 1294 -317 0 0 -744 -646 744zm-85 -1864l263 0c21,32 49,57 86,73 37,16 82,24 135,24 53,0 102,-9 146,-28 28,-13 53,-36 74,-69l264 0c-15,100 -64,181 -145,242 -81,61 -195,92 -340,92 -99,0 -181,-14 -247,-41 -66,-28 -120,-67 -160,-117 -40,-51 -66,-110 -76,-176zm2057 570l324 0 0 485 451 -485 396 0 -580 629 587 665 -431 0 -388 -456 -35 40 0 416 -324 0 0 -1294zm1919 -32c122,0 237,31 345,92 108,61 191,143 252,248 60,104 90,217 90,338 0,122 -30,236 -91,342 -61,106 -143,189 -248,248 -105,60 -221,90 -347,90 -186,0 -345,-66 -476,-197 -132,-132 -198,-292 -198,-480 0,-202 75,-371 223,-505 131,-117 280,-176 450,-176zm4 305c-101,0 -185,35 -252,105 -67,70 -101,160 -101,269 0,112 34,203 100,272 66,70 150,105 252,105 102,0 186,-35 254,-106 68,-70 101,-161 101,-271 0,-111 -33,-201 -99,-270 -66,-69 -151,-104 -255,-104zm1115 1021l0 225 -290 0 0 -500 195 0 449 -1019 209 0 452 1019 199 0 0 500 -309 0 0 -225 -905 0zm670 -275l-213 -547 -222 547 435 0z"/>
  </g>
 </g>
</svg>
